<svg width="38" height="38" viewBox="0 0 38 38" fill="none" xmlns="http://www.w3.org/2000/svg">
<g clip-path="url(#clip0_4_2652)">
<circle cx="19.0001" cy="19.0001" r="15.3226" fill="black"/>
<path d="M20.6993 18.9991L25.8293 13.8691C26.0023 13.6671 26.0926 13.4074 26.0824 13.1417C26.0721 12.8761 25.962 12.6241 25.774 12.4361C25.586 12.2481 25.334 12.138 25.0683 12.1277C24.8027 12.1175 24.5429 12.2078 24.341 12.3807L19.211 17.458L14.0493 12.2963C13.8474 12.1234 13.5877 12.033 13.322 12.0433C13.0564 12.0535 12.8044 12.1637 12.6164 12.3516C12.4284 12.5396 12.3182 12.7916 12.308 13.0573C12.2977 13.323 12.3881 13.5827 12.561 13.7846L17.7121 18.9991L12.6666 23.9813C12.5561 24.0759 12.4663 24.1924 12.403 24.3233C12.3396 24.4543 12.304 24.5969 12.2984 24.7423C12.2928 24.8877 12.3173 25.0326 12.3703 25.1681C12.4234 25.3035 12.5039 25.4266 12.6068 25.5294C12.7096 25.6323 12.8327 25.7128 12.9681 25.7659C13.1036 25.8189 13.2485 25.8434 13.3939 25.8378C13.5393 25.8322 13.6819 25.7966 13.8129 25.7332C13.9438 25.6699 14.0603 25.5801 14.1549 25.4696L19.1899 20.4346L24.1932 25.438C24.3952 25.6109 24.6549 25.7013 24.9206 25.691C25.1862 25.6807 25.4382 25.5706 25.6262 25.3826C25.8142 25.1946 25.9243 24.9426 25.9346 24.677C25.9449 24.4113 25.8545 24.1516 25.6816 23.9496L20.6993 18.9991Z" fill="white"/>
<path d="M19.0005 35.8894C15.6602 35.8894 12.3949 34.8988 9.6175 33.0431C6.84014 31.1873 4.67545 28.5496 3.39717 25.4636C2.11889 22.3775 1.78443 18.9817 2.4361 15.7056C3.08776 12.4295 4.69627 9.42017 7.05822 7.05822C9.42017 4.69627 12.4295 3.08776 15.7056 2.4361C18.9817 1.78443 22.3775 2.11889 25.4636 3.39717C28.5496 4.67545 31.1873 6.84014 33.0431 9.6175C34.8988 12.3949 35.8894 15.6602 35.8894 19.0005C35.8894 23.4797 34.11 27.7754 30.9427 30.9427C27.7754 34.11 23.4797 35.8894 19.0005 35.8894ZM19.0005 4.22269C16.0777 4.22269 13.2206 5.08939 10.7904 6.7132C8.36018 8.337 6.46608 10.645 5.34758 13.3453C4.22909 16.0455 3.93644 19.0169 4.50664 21.8835C5.07685 24.7501 6.48429 27.3832 8.551 29.4499C10.6177 31.5166 13.2509 32.9241 16.1175 33.4943C18.9841 34.0645 21.9554 33.7719 24.6557 32.6534C27.356 31.5349 29.6639 29.6408 31.2877 27.2106C32.9115 24.7804 33.7782 21.9232 33.7782 19.0005C33.7782 15.0812 32.2213 11.3224 29.4499 8.551C26.6786 5.77963 22.9198 4.22269 19.0005 4.22269Z" fill="black"/>
</g>
<defs>
<clipPath id="clip0_4_2652">
<rect width="38" height="38" fill="white"/>
</clipPath>
</defs>
</svg>
